# xmcd
#
# Track frame offsets: 
#        150
#        8918
#        21002
#        31764
#        41631
#        54339
#        65842
#        77457
#        87903
#        99496
#        113559
#        126227
#        138525
#        151547
#        165568
#        179514
#        190615
#        204113
#        214719
#        225100
#
# Disc length: 3172 seconds
#
# Revision: 0
# Processed by: cddbd v1.5.2PL0 Copyright (c) Steve Scherf et al.
# Submitted via: ExactAudioCopyFreeDBPlugin 1.0
#
DISCID=ed0c6214
DTITLE=Various Artist - Burlesque: Absolutely Essential 3 CD Collecti
DTITLE=on [Big 3] 
DYEAR=2013
DGENRE=Burlesque
TTITLE0=David Rose and His Orchestra - The Stripper
TTITLE1=Frank Sinatra - Lover
TTITLE2=The Creed Taylor Orchestra - The Nervous Beat
TTITLE3=The Coasters - Three Cool Cats
TTITLE4=Elmer Bernstein - Toots Shor's Blues
TTITLE5=Sam "The Man" Taylor - Sam's Blues
TTITLE6=The Flamingos - Jump Children (Voot Voot)
TTITLE7=Slim Gaillard and His Southern Fried Orchestra - St. Louis Blu
TTITLE7=es
TTITLE8=The Swallows - It Ain't the Meat
TTITLE9=Wynonie Harris - I Want My Fanny Brown
TTITLE10=Julie Lee and Her Boyfriends - Gotta Gimme What'cha Got
TTITLE11=Jack McVea and His All Stars - Bartender Boogie
TTITLE12=Ella Mae Morse - The House of Blue Lights
TTITLE13=Gene Ammons Sextet - Red Top
TTITLE14=Joe Liggins and His Honeydrippers - The Honeydripper
TTITLE15=Wynonie Harris and the Todd Rhodes Orchestra - Lovin' Machine
TTITLE16=Louis Jordan - Hog Wash
TTITLE17=Roy Montrell - (Everytime I Hear) That Mellow Saxophone
TTITLE18=Candido Camero - Blue Prelude
TTITLE19=Eartha Kitt - Just An Old-Fashioned Girl
EXTD=
EXTT0=
EXTT1=
EXTT2=
EXTT3=
EXTT4=
EXTT5=
EXTT6=
EXTT7=
EXTT8=
EXTT9=
EXTT10=
EXTT11=
EXTT12=
EXTT13=
EXTT14=
EXTT15=
EXTT16=
EXTT17=
EXTT18=
EXTT19=
PLAYORDER=
